<svg xml:space="preserve" style="enable-background:new 0 0 1024 1024;" viewBox="0 0 1024 1024" y="0px" x="0px" xmlns:xlink="http://www.w3.org/1999/xlink" xmlns="http://www.w3.org/2000/svg" id="图层_1" version="1.1">
<style type="text/css">
	.st0{fill:#E08476;}
	.st1{fill:#E23C3C;}
	.st2{fill:#F3B5AF;}
	.st3{fill:#142546;}
</style>
<path d="M243.6,609c0,14.9-12.1,27-27.1,27c-14.9,0-27-12.1-27-27.1c0-14.9,12.1-27,27.1-27
	C231.5,581.9,243.6,594,243.6,609C243.6,609,243.6,609,243.6,609" class="st0"></path>
<path d="M670,254.1c0,13.8-11.2,25.1-25,25.1c-13.8,0-25.1-11.2-25.1-25c0-13.8,11.2-25.1,25-25.1c0,0,0,0,0,0
	C658.8,229.1,670,240.3,670,254.1" class="st1"></path>
<path d="M637.8,162.2h-71c-13.3,0-24-10.8-24-24c0-13.3,10.8-24,24-24h71c13.3,0,24,10.8,24,24S651.1,162.2,637.8,162.2" class="st0"></path>
<path d="M409.7,249.3l-113.8,15.5c-25.3,0-49.2-14.1-64.7-38.2c-4.8-7.5-0.4-18.4,7.5-18.4h137
	C394.4,208.3,409.7,226.7,409.7,249.3" class="st1"></path>
<path d="M782.6,418c-100.7,0-182.3,81.6-182.3,182.3S682,782.6,782.6,782.6S965,701,965,600.3S883.3,418,782.6,418
	L782.6,418 M782.6,741.8c-77.3,0-140-62.7-140-140c0-77.3,62.7-140,140-140c77.3,0,140,62.7,140,140c0,0,0,0,0,0
	C922.6,679.1,859.9,741.8,782.6,741.8 M219,433.3c-95.1,0-172.2,77.1-172.2,172.1c0,95.1,77.1,172.2,172.1,172.2
	c95.1,0,172.2-77.1,172.2-172.1c0,0,0,0,0,0C391.2,510.3,314.1,433.3,219,433.3C219,433.3,219,433.3,219,433.3 M219,738.9
	c-73,0-132.1-59.2-132.1-132.2s59.2-132.1,132.2-132.1c73,0,132.1,59.2,132.1,132.2C351.2,679.8,292.1,739,219,738.9" class="st2"></path>
<path d="M809.7,600.3c0,14.9-12.1,27.1-27.1,27.1c-14.9,0-27.1-12.1-27.1-27.1s12.1-27.1,27.1-27.1
	C797.6,573.3,809.7,585.4,809.7,600.3 M482.2,636c0,14.9-12.1,27.1-27.1,27.1c-14.9,0-27.1-12.1-27.1-27.1
	c0-14.9,12.1-27.1,27.1-27.1C470.1,609,482.2,621.1,482.2,636L482.2,636" class="st0"></path>
<path d="M978,601.8c0-108-87.6-195.4-195.5-195.4c-19.3,0-38.5,2.9-56.9,8.5l-53.4-136.7c14.7-15,14.5-39.1-0.5-53.8
	c-2.9-2.8-6.2-5.2-9.8-7c2.4-2.3,5.5-3.6,8.9-3.6h50.8c24.3,0.5,44.5-18.7,45-43c0.5-24.3-18.7-44.5-43-45c-0.7,0-1.3,0-2,0h-49
	c-5.4-14.4-19.3-24-34.7-24h-71c-20.5,0-37.1,16.6-37.1,37.1s16.6,37.1,37.1,37.1h71c15.4,0,29.2-9.6,34.7-24h49
	c9.8-0.3,18.1,7.4,18.5,17.2c0.3,9.8-7.4,18.1-17.2,18.5c-0.4,0-0.8,0-1.2,0h-50.8c-17.1,0.1-32.1,11.2-37.1,27.6
	c-20.1,6.3-31.3,27.6-25.1,47.8c5,16,19.8,26.8,36.5,26.8c1.2,0,2.4,0,3.5-0.2l18.9,48.4H372.1L350,270.3l70.9-9.7v-11.4
	c0-29.9-21.1-54.1-47.1-54.1h-137c-8.2,0.1-15.7,4.7-19.4,11.9c-4.5,8.4-4.2,18.6,0.9,26.7c17.8,27.7,46.1,44.2,75.7,44.2h0.9
	l28.8-3.9l25.7,78.6l-51.2,86.1c-92.7-47.1-205.9-10.1-253,82.6c-46.7,91.9-10.7,204.3,80.7,252H89.6v26.2h334.3v-26.2H307.3
	c32.2-17.8,58.5-44.6,75.7-77.1l50.4,14.3c11.6,3.4,23.9,3.9,35.8,1.5l21.1,40.2l-24,14.3l13.3,22.5l72-42.6l-13.3-22.6l-25.3,15
	l-19.1-36.4c35.7-21.8,47-68.3,25.2-104c-1.3-2.2-2.8-4.3-4.3-6.3l177.6-190.2l8.7,22.6c-98.1,45-141.1,161-96.1,259
	c17.3,37.8,46.3,69.1,82.7,89.3H544.9v26.2h387.7v-26.2h-55C939.5,738.1,978,672.8,978,601.8 M637.8,149.9h-71
	c-6,0-10.9-4.9-10.9-10.9c0-6,4.9-10.9,10.9-10.9h71c6,0,10.9,4.9,10.9,10.9C648.7,145,643.8,149.9,637.8,149.9 M644.9,263.7
	c-6.6,0-12-5.3-12-11.9c0-6.6,5.3-12,11.9-12c6.6,0,12,5.3,12,11.9c0,0,0,0,0,0C656.8,258.3,651.5,263.6,644.9,263.7 M293.1,251.8
	c-20-0.3-38.7-11.3-51.5-30.4h132.2c8.4,0,15.8,7,19.1,16.8L293.1,251.8z M307.6,474.3c31.4,21.4,54.4,53.2,64.8,89.8l-120.2,3.2
	L307.6,474.3z M216.6,770.4c-89.5,0.2-162.2-72.1-162.5-161.6s72.1-162.2,161.6-162.5c23.8-0.1,47.3,5.1,68.9,15.2l-63.4,106.7
	l-5,0.1c-22.2,0-40.1,18-40.1,40.1c0,21.4,16.8,39,38.2,40l142.7,40.4C328.2,739.3,274.6,770.4,216.6,770.4 M230.5,608.5
	c0,7.7-6.2,14-14,14c-7.7,0-14-6.2-14-14c0-7.7,6.2-14,14-14C224.3,594.5,230.5,600.8,230.5,608.5 M368.4,664.9l-118.8-33.6
	c1.1-1.6,2-3.2,2.9-4.9l122.8,15C373.6,649.3,371.3,657.2,368.4,664.9 M378.4,615.3l-122.5-15c-0.5-2.3-1.3-4.6-2.2-6.8l123.7-3.3
	c0.7,6.1,1.1,12.1,1.1,18.2c0,2.3,0,4.6-0.2,6.9 M320.9,451.8l39.3-66l57.9,177.1l-18.8,0.5C388,517.7,360,477.9,320.9,451.8
	 M454.3,687.2c-27.4-0.2-49.4-22.5-49.3-49.8c0.1-26.1,20.5-47.6,46.6-49.2h2.8c27.4,0.6,49.1,23.2,48.5,50.6
	c-0.6,26.5-21.9,47.9-48.5,48.5 M495.7,574.2c-2.7-1.8-5.5-3.4-8.4-4.8l19-56.2l28.4,7.2l6.5-25.4l-81-20.7l-6.5,25.4l27,6.9
	l-18.8,55.6c-2.4-0.2-4.9-0.4-7.5-0.4h-0.3l-8.5,0.2l-64.8-197.9h296.9l4.1,10.5L495.7,574.2z M613.6,601.9
	c0.1-65.5,37.9-125.2,97.2-153.1l47.4,121.4c-17.5,13.6-20.7,38.8-7.1,56.3c13.6,17.5,38.8,20.7,56.3,7.1
	c17.5-13.6,20.7-38.8,7.1-56.3c-7.5-9.7-19.1-15.5-31.4-15.5l-47.8-122.3c89.7-26.2,183.6,25.3,209.8,115
	c26.2,89.7-25.3,183.6-115,209.8c-89.7,26.2-183.6-25.3-209.8-115C615.8,633.9,613.6,617.9,613.6,601.9 M768.8,601.9
	c0-7.7,6.2-14,14-14c7.7,0,14,6.2,14,14c0,7.7-6.2,14-14,14C775.1,615.8,768.8,609.6,768.8,601.9 M965,772.6h59.3v26.2H965V772.6z
	 M0.3,773.2h59.3v26.2H0.3V773.2z" class="st3"></path>
<path d="M782.6,753.7v-26.2c70.2,0,127.1-57,127-127.2c0-60.3-42.4-112.2-101.4-124.4l5.3-25.7
	c83,16.8,136.6,97.7,119.8,180.7C918.8,702.5,855.7,753.9,782.6,753.7 M455.8,671.2c-18.6,0-33.6-15.1-33.6-33.6
	s15.1-33.6,33.6-33.6c18.6,0,33.6,15.1,33.6,33.6l0,0C489.4,656.2,474.3,671.2,455.8,671.2 M455.8,630.2c-4.1,0-7.4,3.3-7.4,7.4
	c0,4.1,3.3,7.4,7.4,7.4c4.1,0,7.4-3.3,7.4-7.4c0,0,0,0,0,0C463.2,633.5,459.9,630.2,455.8,630.2
	C455.8,630.2,455.8,630.2,455.8,630.2 M218.3,749.3C140.1,749.4,76.6,686,76.5,607.8c0-4.5,0.2-8.9,0.6-13.3l26.1,2.5
	c-5.9,63.5,40.7,119.7,104.2,125.6c18.8,1.8,37.7-1.1,55.2-8.4l10.1,24.2C255.5,745.5,236.9,749.2,218.3,749.3 M113.2,559.6
	l-23.8-10.9c14.8-32.3,41.2-57.8,74-71.5l10.1,24.1C146.8,512.5,125.3,533.3,113.2,559.6 M696.9,727.5
	c-70.1-47.4-88.6-142.7-41.2-212.8c5.5-8.1,11.7-15.7,18.6-22.6l18.5,18.5c-49.6,49.6-49.6,130.1,0,179.7c5.8,5.8,12.1,11,18.8,15.5
	L696.9,727.5z" class="st3"></path>
</svg>
